<svg width="340" height="340" viewBox="0 0 340 340" xmlns="http://www.w3.org/2000/svg">
  <linearGradient id="gradient1" x1="0%" y1="0%" x2="100%" y2="100%">
    <stop offset="0%" stop-color="#6dc7ff"/>
    <stop offset="100%" stop-color="#eaabff"/>
  </linearGradient>
  <linearGradient id="gradient2" x1="0%" y1="100%" x2="100%" y2="0%">
    <stop offset="0%" stop-color="#1a6dff"/>
    <stop offset="100%" stop-color="#c822ff"/>
  </linearGradient>

  <path fill="url(#gradient1)" d="M192.131 82.458L207.41 36.8783H260.403L245.043 82.458H192.131Z"/>
  <path fill="url(#gradient2)" fill-rule="evenodd" clip-rule="evenodd" d="M128.026 144.716C142.966 132.84 161.165 125.37 181.659 125.37C223.609 125.37 264.409 152.196 264.409 220.953V306H210.776V220.953C210.776 185.516 193.929 172.107 170.933 172.107C151.969 172.107 138.181 183.026 130.516 194.517V306H76.692V85.336H44L61.2077 34H128.026V144.716ZM242.988 79.567L256.407 39.7565H209.485L196.132 79.567H242.988ZM205.338 34H264.409L247.112 85.336H188.13L205.338 34Z"/>
</svg>
